<svg width="83" height="45" viewBox="0 0 83 45" fill="none" xmlns="http://www.w3.org/2000/svg">
<path d="M6.87891 23.2324H3.29883V27H2.17383V18.4688H7.45898V19.3945H3.29883V22.3125H6.87891V23.2324Z" fill="#DE1935"/>
<path d="M16.2695 27.1172C15.4102 27.1172 14.7109 26.8359 14.1719 26.2734C13.6328 25.707 13.3633 24.9512 13.3633 24.0059V23.8066C13.3633 23.1777 13.4824 22.6172 13.7207 22.125C13.9629 21.6289 14.2988 21.2422 14.7285 20.9648C15.1621 20.6836 15.6309 20.543 16.1348 20.543C16.959 20.543 17.5996 20.8145 18.0566 21.3574C18.5137 21.9004 18.7422 22.6777 18.7422 23.6895V24.1406H14.4473C14.4629 24.7656 14.6445 25.2715 14.9922 25.6582C15.3438 26.041 15.7891 26.2324 16.3281 26.2324C16.7109 26.2324 17.0352 26.1543 17.3008 25.998C17.5664 25.8418 17.7988 25.6348 17.998 25.377L18.6602 25.8926C18.1289 26.709 17.332 27.1172 16.2695 27.1172ZM16.1348 21.4336C15.6973 21.4336 15.3301 21.5938 15.0332 21.9141C14.7363 22.2305 14.5527 22.6758 14.4824 23.25H17.6582V23.168C17.627 22.6172 17.4785 22.1914 17.2129 21.8906C16.9473 21.5859 16.5879 21.4336 16.1348 21.4336Z" fill="#DE1935"/>
<path d="M32.4414 23.1973C31.4766 22.9199 30.7734 22.5801 30.332 22.1777C29.8945 21.7715 29.6758 21.2715 29.6758 20.6777C29.6758 20.0059 29.9434 19.4512 30.4785 19.0137C31.0176 18.5723 31.7168 18.3516 32.5762 18.3516C33.1621 18.3516 33.6836 18.4648 34.1406 18.6914C34.6016 18.918 34.957 19.2305 35.207 19.6289C35.4609 20.0273 35.5879 20.4629 35.5879 20.9355H34.457C34.457 20.4199 34.293 20.0156 33.9648 19.7227C33.6367 19.4258 33.1738 19.2773 32.5762 19.2773C32.0215 19.2773 31.5879 19.4004 31.2754 19.6465C30.9668 19.8887 30.8125 20.2266 30.8125 20.6602C30.8125 21.0078 30.959 21.3027 31.252 21.5449C31.5488 21.7832 32.0508 22.002 32.7578 22.2012C33.4688 22.4004 34.0234 22.6211 34.4219 22.8633C34.8242 23.1016 35.1211 23.3809 35.3125 23.7012C35.5078 24.0215 35.6055 24.3984 35.6055 24.832C35.6055 25.5234 35.3359 26.0781 34.7969 26.4961C34.2578 26.9102 33.5371 27.1172 32.6348 27.1172C32.0488 27.1172 31.502 27.0059 30.9941 26.7832C30.4863 26.5566 30.0938 26.248 29.8164 25.8574C29.543 25.4668 29.4062 25.0234 29.4062 24.5273H30.5371C30.5371 25.043 30.7266 25.4512 31.1055 25.752C31.4883 26.0488 31.998 26.1973 32.6348 26.1973C33.2285 26.1973 33.6836 26.0762 34 25.834C34.3164 25.5918 34.4746 25.2617 34.4746 24.8438C34.4746 24.4258 34.3281 24.1035 34.0352 23.877C33.7422 23.6465 33.2109 23.4199 32.4414 23.1973Z" fill="#445EFF"/>
<path d="M46.0391 27H44.9551V20.6602H46.0391V27ZM44.8672 18.9785C44.8672 18.8027 44.9199 18.6543 45.0254 18.5332C45.1348 18.4121 45.2949 18.3516 45.5059 18.3516C45.7168 18.3516 45.877 18.4121 45.9863 18.5332C46.0957 18.6543 46.1504 18.8027 46.1504 18.9785C46.1504 19.1543 46.0957 19.3008 45.9863 19.418C45.877 19.5352 45.7168 19.5938 45.5059 19.5938C45.2949 19.5938 45.1348 19.5352 45.0254 19.418C44.9199 19.3008 44.8672 19.1543 44.8672 18.9785Z" fill="#445EFF"/>
<path d="M60.3066 23.9004C60.3066 24.8652 60.0859 25.6426 59.6445 26.2324C59.2031 26.8223 58.6055 27.1172 57.8516 27.1172C57.082 27.1172 56.4766 26.873 56.0352 26.3848V29.4375H54.9512V20.6602H55.9414L55.9941 21.3633C56.4355 20.8164 57.0488 20.543 57.834 20.543C58.5957 20.543 59.1973 20.8301 59.6387 21.4043C60.084 21.9785 60.3066 22.7773 60.3066 23.8008V23.9004ZM59.2227 23.7773C59.2227 23.0625 59.0703 22.498 58.7656 22.084C58.4609 21.6699 58.043 21.4629 57.5117 21.4629C56.8555 21.4629 56.3633 21.7539 56.0352 22.3359V25.3652C56.3594 25.9434 56.8555 26.2324 57.5234 26.2324C58.043 26.2324 58.4551 26.0273 58.7598 25.6172C59.0684 25.2031 59.2227 24.5898 59.2227 23.7773Z" fill="#445EFF"/>
<path d="M67.0352 20.6602L67.0703 21.457C67.5547 20.8477 68.1875 20.543 68.9688 20.543C70.3086 20.543 70.9844 21.2988 70.9961 22.8105V27H69.9121V22.8047C69.9082 22.3477 69.8027 22.0098 69.5957 21.791C69.3926 21.5723 69.0742 21.4629 68.6406 21.4629C68.2891 21.4629 67.9805 21.5566 67.7148 21.7441C67.4492 21.9316 67.2422 22.1777 67.0938 22.4824V27H66.0098V20.6602H67.0352Z" fill="#445EFF"/>
<path d="M81.9863 24.5918H81.0078L80.9316 18.4688H82.0684L81.9863 24.5918ZM80.8906 26.4551C80.8906 26.2793 80.9434 26.1328 81.0488 26.0156C81.1582 25.8945 81.3184 25.834 81.5293 25.834C81.7402 25.834 81.9004 25.8945 82.0098 26.0156C82.1191 26.1328 82.1738 26.2793 82.1738 26.4551C82.1738 26.6309 82.1191 26.7773 82.0098 26.8945C81.9004 27.0078 81.7402 27.0645 81.5293 27.0645C81.3184 27.0645 81.1582 27.0078 81.0488 26.8945C80.9434 26.7773 80.8906 26.6309 80.8906 26.4551Z" fill="#445EFF"/>
<path d="M12.3516 21.6328C12.1875 21.6055 12.0098 21.5918 11.8184 21.5918C11.1074 21.5918 10.625 21.8945 10.3711 22.5V27H9.28711V20.6602H10.3418L10.3594 21.3926C10.7148 20.8262 11.2188 20.543 11.8711 20.543C12.082 20.543 12.2422 20.5703 12.3516 20.625V21.6328Z" fill="#445EFF"/>
<path d="M39.0996 21.4277C39.5801 20.8379 40.2051 20.543 40.9746 20.543C42.3145 20.543 42.9902 21.2988 43.002 22.8105V27H41.918V22.8047C41.9141 22.3477 41.8086 22.0098 41.6016 21.791C41.3984 21.5723 41.0801 21.4629 40.6465 21.4629C40.2949 21.4629 39.9863 21.5566 39.7207 21.7441C39.4551 21.9316 39.248 22.1777 39.0996 22.4824V27H38.0156V18H39.0996V21.4277Z" fill="#DE1935"/>
<path d="M64.0391 27H62.9551V20.6602H64.0391V27ZM62.8672 18.9785C62.8672 18.8027 62.9199 18.6543 63.0254 18.5332C63.1348 18.4121 63.2949 18.3516 63.5059 18.3516C63.7168 18.3516 63.877 18.4121 63.9863 18.5332C64.0957 18.6543 64.1504 18.8027 64.1504 18.9785C64.1504 19.1543 64.0957 19.3008 63.9863 19.418C63.877 19.5352 63.7168 19.5938 63.5059 19.5938C63.2949 19.5938 63.1348 19.5352 63.0254 19.418C62.9199 19.3008 62.8672 19.1543 62.8672 18.9785Z" fill="#DE1935"/>
<path d="M53.3066 23.9004C53.3066 24.8652 53.0859 25.6426 52.6445 26.2324C52.2031 26.8223 51.6055 27.1172 50.8516 27.1172C50.082 27.1172 49.4766 26.873 49.0352 26.3848V29.4375H47.9512V20.6602H48.9414L48.9941 21.3633C49.4355 20.8164 50.0488 20.543 50.834 20.543C51.5957 20.543 52.1973 20.8301 52.6387 21.4043C53.084 21.9785 53.3066 22.7773 53.3066 23.8008V23.9004ZM52.2227 23.7773C52.2227 23.0625 52.0703 22.498 51.7656 22.084C51.4609 21.6699 51.043 21.4629 50.5117 21.4629C49.8555 21.4629 49.3633 21.7539 49.0352 22.3359V25.3652C49.3594 25.9434 49.8555 26.2324 50.5234 26.2324C51.043 26.2324 51.4551 26.0273 51.7598 25.6172C52.0684 25.2031 52.2227 24.5898 52.2227 23.7773Z" fill="#DE1935"/>
<path d="M23.2695 27.1172C22.4102 27.1172 21.7109 26.8359 21.1719 26.2734C20.6328 25.707 20.3633 24.9512 20.3633 24.0059V23.8066C20.3633 23.1777 20.4824 22.6172 20.7207 22.125C20.9629 21.6289 21.2988 21.2422 21.7285 20.9648C22.1621 20.6836 22.6309 20.543 23.1348 20.543C23.959 20.543 24.5996 20.8145 25.0566 21.3574C25.5137 21.9004 25.7422 22.6777 25.7422 23.6895V24.1406H21.4473C21.4629 24.7656 21.6445 25.2715 21.9922 25.6582C22.3438 26.041 22.7891 26.2324 23.3281 26.2324C23.7109 26.2324 24.0352 26.1543 24.3008 25.998C24.5664 25.8418 24.7988 25.6348 24.998 25.377L25.6602 25.8926C25.1289 26.709 24.332 27.1172 23.2695 27.1172ZM23.1348 21.4336C22.6973 21.4336 22.3301 21.5938 22.0332 21.9141C21.7363 22.2305 21.5527 22.6758 21.4824 23.25H24.6582V23.168C24.627 22.6172 24.4785 22.1914 24.2129 21.8906C23.9473 21.5859 23.5879 21.4336 23.1348 21.4336Z" fill="#445EFF"/>
<path d="M72.6934 23.7773C72.6934 22.7891 72.9219 22.0039 73.3789 21.4219C73.8359 20.8359 74.4414 20.543 75.1953 20.543C75.9688 20.543 76.5723 20.8164 77.0059 21.3633L77.0586 20.6602H78.0488V26.8477C78.0488 27.668 77.8047 28.3145 77.3164 28.7871C76.832 29.2598 76.1797 29.4961 75.3594 29.4961C74.9023 29.4961 74.4551 29.3984 74.0176 29.2031C73.5801 29.0078 73.2461 28.7402 73.0156 28.4004L73.5781 27.75C74.043 28.3242 74.6113 28.6113 75.2832 28.6113C75.8105 28.6113 76.2207 28.4629 76.5137 28.166C76.8105 27.8691 76.959 27.4512 76.959 26.9121V26.3672C76.5254 26.8672 75.9336 27.1172 75.1836 27.1172C74.4414 27.1172 73.8398 26.8184 73.3789 26.2207C72.9219 25.623 72.6934 24.8086 72.6934 23.7773ZM73.7832 23.9004C73.7832 24.6152 73.9297 25.1777 74.2227 25.5879C74.5156 25.9941 74.9258 26.1973 75.4531 26.1973C76.1367 26.1973 76.6387 25.8867 76.959 25.2656V22.3711C76.627 21.7656 76.1289 21.4629 75.4648 21.4629C74.9375 21.4629 74.5254 21.668 74.2285 22.0781C73.9316 22.4883 73.7832 23.0957 73.7832 23.9004Z" fill="#DE1935"/>
</svg>
