<svg width="63" height="43" viewBox="0 0 63 43" fill="none" xmlns="http://www.w3.org/2000/svg">
<g clip-path="url(#clip0_4_32)">
<path d="M30.3333 0H27.2222V42.2321H30.3333V0Z" fill="#FF9372"/>
<path d="M36.5556 0H33.4445V42.2321H36.5556V0Z" fill="#FF91FF"/>
<path d="M42.3111 23.0357H39.2V42.2321H42.3111V23.0357Z" fill="#7894FF"/>
<path fill-rule="evenodd" clip-rule="evenodd" d="M42.5445 19.4268C42.5445 18.5054 41.7667 17.7375 40.7556 17.7375C39.7445 17.7375 38.9667 18.5054 38.9667 19.4268C38.9667 20.3482 39.7445 21.1161 40.7556 21.1161C41.7667 21.1929 42.5445 20.425 42.5445 19.4268Z" fill="#7894FF"/>
<path d="M23.8778 23.0357H20.7667V42.2321H23.8778V23.0357Z" fill="#FF502C"/>
<path fill-rule="evenodd" clip-rule="evenodd" d="M24.1889 19.4268C24.1889 18.5054 23.4111 17.7375 22.4 17.7375C21.3889 17.7375 20.6111 18.5054 20.6111 19.4268C20.6111 20.3482 21.3889 21.1161 22.4 21.1161C23.4111 21.1161 24.1889 20.425 24.1889 19.4268Z" fill="#FF502C"/>
<path fill-rule="evenodd" clip-rule="evenodd" d="M63 33.4018H47.9889C48.1445 35.1679 48.6111 36.55 49.3111 37.5482C50.4778 39.2375 52.1889 40.0821 54.3667 40.0821C56.8556 40.0821 58.5667 38.8536 59.3445 36.3964H62.4556C61.2111 40.4661 58.4111 42.5393 54.0556 42.5393C51.0222 42.5393 48.6889 41.5411 47.0556 39.6214C45.5 37.8554 44.7222 35.5518 44.7222 32.7107C44.7222 29.4857 45.6556 26.9518 47.5222 25.1857C49.1556 23.5732 51.2556 22.8054 53.7445 22.8054C56.0778 22.8054 58.1 23.4964 59.7333 24.8786C61.3667 26.2607 62.3 28.1804 62.6889 30.6375C62.9222 31.4054 62.9222 32.3268 63 33.4018ZM59.7333 31.175C59.5778 29.7161 59.1889 28.5643 58.4889 27.6429C57.4 26.1071 55.8445 25.3393 53.9 25.3393C52.5778 25.3393 51.4111 25.7232 50.4 26.4911C49.0778 27.4893 48.3 29.025 47.9889 31.175H59.7333Z" fill="#FF502C"/>
<path fill-rule="evenodd" clip-rule="evenodd" d="M3.26667 0V25.5696C4.97778 23.4196 7.15556 22.2679 9.8 22.2679C12.4444 22.2679 14.4667 23.1893 16.0222 25.0321C17.5778 26.875 18.3556 29.3321 18.3556 32.3268C18.3556 35.475 17.5 38.0089 15.8667 40.0054C14.3889 41.6946 12.4444 42.6161 9.95555 42.6161C7.31111 42.6161 5.05556 41.6179 3.34444 39.5446V42.2321H0V0H3.26667ZM9.25556 24.8786C7.46667 24.8786 5.98889 25.5696 4.82222 27.0286C3.73333 28.3339 3.26667 30.1768 3.26667 32.7107C3.26667 34.8607 3.73333 36.4732 4.58889 37.7018C5.75556 39.3143 7.38889 40.0821 9.48889 40.0821C11.4333 40.0821 12.9111 39.3911 13.7667 37.9321C14.7 36.55 15.0889 34.7071 15.0889 32.4804C15.0889 30.3304 14.6222 28.5643 13.7667 27.1821C12.7556 25.6464 11.2778 24.8786 9.25556 24.8786Z" fill="#7894FF"/>
</g>
<defs>
<clipPath id="clip0_4_32">
<rect width="63" height="43" fill="white"/>
</clipPath>
</defs>
</svg>
